<svg xmlns="http://www.w3.org/2000/svg" width="1024" height="576" viewBox="0 0 1024 576">
<rect x="0" y="0" width="1024" height="576" rx="0" fill="#121D17"/><circle cx="794" cy="145" r="43" fill="#243A2A"/><circle cx="806" cy="132" r="36" fill="#121D17"/><path d="M470 352 546 283h52v-29h47v-34h67v26h50l85 74h80l97 54v202H0V415l120-58h176l106 30Z" fill="#1B2B20"/><path d="M0 420h537l73-33h145l50 19h219v170H0Z" fill="#20362A"/><path d="M648 382h145l27 15h108l38 19h58M545 435h265m-176 22h280m-384 28h225m111 20h128m-402 34h239" fill="none" stroke="#35533C" stroke-width="2"/><path d="M0 436h226l84-23h182v29h74v29h91v30h91v30h76v45H0Z" fill="#15221A"/><path d="M444 413h48v29h74v29h91v30h91v30h76" fill="none" stroke="#3D563F" stroke-width="2"/><path d="M461 393v20m-8-17 8-8 8 8Zm319-35v23m-9-16 9-10 9 10Z" fill="none" stroke="#637B51" stroke-width="2"/>
</svg>
